<?xml version="1.0" encoding="utf-8"?>
<!-- Generator: Adobe Illustrator 21.0.0, SVG Export Plug-In . SVG Version: 6.00 Build 0)  -->
<svg version="1.1" id="Layer_1" xmlns="http://www.w3.org/2000/svg" xmlns:xlink="http://www.w3.org/1999/xlink" x="0px" y="0px"
	 viewBox="0 0 1400 980" style="enable-background:new 0 0 1400 980;" xml:space="preserve">
<style type="text/css">
	.st0{fill:#4A4742;}
</style>
<g>
	<path class="st0" d="M218.9,199.3c8.2,0,16.3-3.6,23.5-10.4c20.7-0.5,44.6-2.3,44.6-2.3c-0.9-115.5-56.4-124.3-67.9-124.5v0
		c-0.1,0-0.2,0-0.2,0c-0.1,0-0.2,0-0.2,0v0c-11.5,0.3-66.9,9-67.9,124.5c0,0,24,1.7,44.6,2.3C202.7,195.7,210.7,199.3,218.9,199.3z
		 M231.6,189.1c-4.2,2.5-8.4,3.8-12.6,3.8s-8.5-1.3-12.6-3.8c-0.6-0.3-1.1-0.7-1.7-1.1c-4.4-3-8.7-7.4-12.4-12.8
		c-7.1-10.4-11.6-23.6-11.6-34.4l0.3-13.5c6.7-0.3,22.4-2.1,36.4-11.8c4.7,3.4,17.1,10.6,39.8,11.7l0,13.5c0,10.8-4.4,24-11.6,34.5
		c-3.7,5.4-7.9,9.8-12.4,12.8C232.7,188.4,232.1,188.7,231.6,189.1z M218.9,79.7c23.8,0,43.1,17.1,43.1,38.1c0,1-0.1,2-0.1,3
		c-0.1,0.7-0.2,1.5-0.3,2.2c-0.1-0.8-0.3-1.5-0.4-2.2c-3.9-17.5-21.4-30.6-42.3-30.6c-20.9,0-38.3,13.1-42.3,30.5
		c-0.2,0.8-0.3,1.5-0.4,2.3c-0.1-0.8-0.2-1.6-0.3-2.3c-0.1-1-0.1-1.9-0.1-2.9C175.8,96.8,195.1,79.7,218.9,79.7z"/>
	<path class="st0" d="M318.5,250.2c-3.7-15.7-14.4-29-29-35.9c-0.7-0.3-1.4-0.7-2.2-1v61.4h37L318.5,250.2z"/>
	<path class="st0" d="M218.7,220.3c-15.8,0-29-5-32.1-19.9c-7.3,2-14.2,4.2-20.7,6.6v41.4H272V207c-6.6-2.4-13.8-4.7-21.2-6.7
		C247.7,215.2,234.5,220.3,218.7,220.3z"/>
	<path class="st0" d="M150.6,213.3c-0.8,0.3-1.5,0.7-2.2,1.1c-14.6,6.9-25.2,20.2-28.9,35.9l-5.8,24.4h37V213.3z"/>
	<path class="st0" d="M462.9,158.9l5.3,85.3c0.4,8.1,7.1,14.5,15.2,14.5h105.5c8.1,0,14.8-6.4,15.2-14.5l5.3-85
		c4-1.4,6.8-4.1,7.1-7.2l0.9-8.9h-7.5c0-22-7.7-42.7-21.6-58.2c-14-15.7-32.6-24.3-52.4-24.3c-19.8,0-38.4,8.6-52.4,24.3
		c-13.9,15.6-21.5,36.3-21.6,58.2h-6.4l1.1,9.1C457,155,459.4,157.5,462.9,158.9z M487.4,88.3c13-14.6,30.2-22.6,48.5-22.6
		c18.3,0,35.5,8,48.5,22.6c13,14.6,20.2,34.1,20.2,54.8H467.1C467.2,122.4,474.3,103,487.4,88.3z"/>
	<path class="st0" d="M481.2,266.7c0,3.8,3.1,7,7,7h93.4c3.8,0,7-3.1,7-7v-4.2H481.2V266.7z"/>
	<circle class="st0" cx="581.3" cy="99.1" r="5.9"/>
	<circle class="st0" cx="562.7" cy="96" r="6.1"/>
	<circle class="st0" cx="509.1" cy="99.5" r="3.9"/>
	<path class="st0" d="M577.7,121.1c0.1-0.7,0.2-1.4,0.2-2.2c0-7.6-6.1-13.7-13.7-13.7c-3.6,0-6.8,1.4-9.2,3.6
		c-1.9-9.3-10.1-16.3-20-16.3c-8.7,0-16.2,5.5-19.1,13.2c-2.4,0.1-4.6,0.8-6.5,2c-1.6-0.6-3.3-1-5.1-1c-7.6,0-13.7,6.1-13.7,13.7
		c0,1.7,0.3,3.3,0.9,4.9c-5.2,2.5-9.3,7.1-10.9,12.7h108.7c0-0.1,0-0.1,0-0.2C589.2,130.1,584.4,123.6,577.7,121.1z M507.2,115.5
		c-4.8-1-9.6,2-10.6,6.8c-0.4,1.6-0.2,3.3,0.3,4.7c-2.2-2.1-3.3-5.2-2.6-8.4c1-4.8,5.8-7.9,10.6-6.8c3.2,0.7,5.6,3,6.6,5.9
		C510.2,116.7,508.8,115.9,507.2,115.5z M538.4,101c-5.8-1.3-11.6,2.4-12.8,8.3c-0.4,2-0.3,3.9,0.3,5.7c-2.7-2.5-4-6.3-3.2-10.2
		c1.3-5.8,7-9.5,12.8-8.3c3.8,0.8,6.8,3.6,7.9,7.1C542.1,102.4,540.4,101.5,538.4,101z"/>
	<circle class="st0" cx="492.7" cy="103.1" r="4"/>
	<rect x="792" y="67.9" class="st0" width="7" height="10.9"/>
	<path class="st0" d="M800.1,112.6l3.8,3.8c0,0,8.9-7.5,11.5-21.9l16.2-6.9l4.6,2.9l7.4,12.6h22.3l11.8-16.2l-25.6-23.2h-50.6v19.7
		h7.3C808.7,87.6,808,107.7,800.1,112.6z"/>
	<path class="st0" d="M880,108.7h-46.2v22.1h6.8v4.2c0,12.7-4.7,25-13.1,34.5L816.2,182c-9.8,11-15.3,25.3-15.3,40.1l0.4,38.5
		c0.7,7.1,6.7,12.5,13.9,12.5h85.7c6.8,0,12.7-5,13.8-11.7c6-36.7-9.7-82.7-37.9-130.6h3.2V108.7z"/>
	<path class="st0" d="M1264.3,116.7h-185.8v149.9h185.8V116.7z M1171.5,249c-30.9,0-56-25.1-56-56s25.1-56,56-56s56,25.1,56,56
		S1202.4,249,1171.5,249z"/>
	<path class="st0" d="M1264.3,70.2h-185.8v36.3h185.8V70.2z M1097.2,95.4c-3.7,0-6.7-3-6.7-6.7c0-3.7,3-6.7,6.7-6.7s6.7,3,6.7,6.7
		C1103.9,92.4,1100.9,95.4,1097.2,95.4z M1124.9,95.4c-3.7,0-6.7-3-6.7-6.7c0-3.7,3-6.7,6.7-6.7c3.7,0,6.7,3,6.7,6.7
		C1131.6,92.4,1128.6,95.4,1124.9,95.4z M1239.6,99.6c-6.7,0-12.1-5.4-12.1-12.1c0-6.7,5.4-12.1,12.1-12.1c6.7,0,12.1,5.4,12.1,12.1
		C1251.7,94.2,1246.2,99.6,1239.6,99.6z"/>
	<path class="st0" d="M1167.7,191.6c-14.6-9.1-29.9-6.9-40.6-3.2c-0.2,1.5-0.2,3-0.2,4.5c0,24.6,20,44.6,44.6,44.6
		s44.6-20,44.6-44.6c0-0.6,0-1.1,0-1.7C1200.9,197.2,1181.9,200.4,1167.7,191.6z"/>
	
		<rect x="1230.3" y="85.5" transform="matrix(0.7071 -0.7071 0.7071 0.7071 300.9169 902.0191)" class="st0" width="17.9" height="4.5"/>
	<path class="st0" d="M497.9,552.6l16.4-16.4l1.4,1.4l38.4-14.9L504.3,473l-14.9,38.4l1.4,1.4l-16.4,16.4c-2.3,2.3-2.4,6.1-0.2,8.5
		l-49.7,49.7c-4.2,4.2-4.2,11,0,15.1c4.2,4.2,11,4.2,15.1,0l49.7-49.7C491.8,555,495.5,554.9,497.9,552.6z"/>
	<path class="st0" d="M626.4,463.5L590,478.7l61.2-34.2c0.5-5.3-5.5-10.5-10.5-13.8c-3.7-2.4-8.4-2.6-12.2-0.3L580.1,459l58.7-43.1
		l-30.4-29.6l-43.5,55.8c0,0,30-42.3,31.2-51.7c1.2-9.4-16-20.9-16-20.9l-34.1,61.2c0,0,15.2-34.9,17.7-43.1
		c2.5-8.2-14.8-21.3-14.8-21.3l-39.3,99.5l49.7,49.7l92.1-37.7l-12-11.7C636,462.6,630.9,461.6,626.4,463.5z"/>
	<path class="st0" d="M306.1,573.4c0,0-44.6-45.7-25.8-96H134c0,0-22.4,58.7,17.3,96h21.1c-10.4-9-20.9-18.5-18.1-40.3
		c0,0,18.4,30.2,36.4,40.3H212c-11.7-9.7-10.3-17.2-9.1-26.9c0,0,8.4,17.3,23.2,25.4l36.2,1.5c-15.4-8.8-18.8-22.9-14.5-39.3
		c0,0,10.4,27.9,32.4,39.3H306.1z"/>
	<path class="st0" d="M134,452.6v15.9h146.3v-15.9c0-9.3-7.5-16.8-16.8-16.8h-40.2l6.3-54.4c2.1-18.5-8.5-22.7-23.9-22.7h0
		c-15.4,0-26,4.2-23.9,22.7l6.3,54.4h-37.2C141.5,435.8,134,443.3,134,452.6z M204.7,372.7c4.3,0,7.9,3.5,7.9,7.9
		c0,4.3-3.5,7.9-7.9,7.9c-4.3,0-7.9-3.5-7.9-7.9C196.8,376.2,200.4,372.7,204.7,372.7z"/>
	<circle class="st0" cx="213.4" cy="598.6" r="5.5"/>
	<circle class="st0" cx="260.8" cy="600.8" r="12.4"/>
	<circle class="st0" cx="305.2" cy="586.1" r="5"/>
	<circle class="st0" cx="183" cy="588.6" r="4.9"/>
	<circle class="st0" cx="868.4" cy="599.8" r="4.7"/>
	<circle class="st0" cx="911.4" cy="603.2" r="12.2"/>
	<circle class="st0" cx="946.2" cy="589.1" r="2.3"/>
	<path class="st0" d="M783.1,581h0.8c-0.1-5.8,0.1-11.6,0.4-17.3c2.3,5.8,4.8,11.6,7.5,17.3h32.6c0.3-15.7-0.2-43,12.9-55.7
		c-1.1,15.7-0.9,40.6,4.2,55.7H870c-0.9-11.3,3.9-26.2,5.6-30.3c-1.1,9.2,5,22.5,7.9,30.3h34.9c-2.2-7.1-8.4-27.6-12.3-52.1
		c-2.6-15.2-4.4-32.1-6.3-48.7c-2-16.6-3.9-33.1-9.7-47.6c0,0,0,0,0,0c-11.3-5.9-22.6-11.8-33.8-17.7c0,0,0,0,0,0
		c0.3,0.2-23,5.7-50,29.5c-13.2,12-26.9,28.8-36.2,51.6c-9.2,22.7-14.1,51.3-8.1,84.7C769,580.8,776.1,580.9,783.1,581z"/>
	<path class="st0" d="M867,409.5c8.1,4.5,16.1,9,24.2,13.5c0,0,0,0,0,0c0.6-4,1.3-8,2.1-12.1l-12.6-7.7
		C876.1,405.2,871.5,407.3,867,409.5z"/>
	<polygon class="st0" points="895.4,406.4 940.2,368.2 920.7,356.4 885.2,399.5 	"/>
	<path class="st0" d="M1248.2,506.3l13.2-77.1c-1.9-13.2-41.4-41.4-41.4-41.4l-107.2,58.3c-33.2,33.2-38.2,94.6-38.2,94.6
		c14.8,14.8,29.7,29.7,44.5,44.5C1164.5,563.6,1219,544.1,1248.2,506.3z M1134.5,565.7c-2.8,2.8-7.3,2.8-10.1,0
		c-2.8-2.8-2.8-7.3,0-10.1c2.8-2.8,7.3-2.8,10.1,0C1137.3,558.4,1137.3,562.9,1134.5,565.7z M1139.8,531.7c-2.8,2.8-7.3,2.8-10.1,0
		c-2.8-2.8-2.8-7.3,0-10.1c2.8-2.8,7.3-2.8,10.1,0C1142.6,524.3,1142.6,528.9,1139.8,531.7z M1169.9,538.8c-2.8,2.8-7.4,2.8-10.2,0
		c-2.8-2.8-2.8-7.4,0-10.2c2.8-2.8,7.4-2.8,10.2,0C1172.7,531.4,1172.7,536,1169.9,538.8z M1186.7,493.2c-1.9-1.9-1.9-5,0-6.9
		s5-1.9,6.9,0s1.9,5,0,6.9S1188.6,495.1,1186.7,493.2z M1205.9,527.9c-2.8,2.8-7.3,2.8-10.1,0c-2.8-2.8-2.8-7.3,0-10.1
		c2.8-2.8,7.3-2.8,10.1,0C1208.7,520.6,1208.7,525.1,1205.9,527.9z M1226,434.6c1.6-1.6,4.3-1.6,5.9,0c1.6,1.6,1.6,4.3,0,5.9
		c-1.6,1.6-4.3,1.6-5.9,0C1224.3,438.9,1224.3,436.3,1226,434.6z M1240.6,440.9c2.8-2.8,7.3-2.8,10.1,0c2.8,2.8,2.8,7.3,0,10.1
		c-2.8,2.8-7.3,2.8-10.1,0C1237.8,448.2,1237.8,443.6,1240.6,440.9z M1237.5,470.7c1.6-1.6,4.3-1.6,5.9,0c1.6,1.6,1.6,4.3,0,5.9
		c-1.6,1.6-4.3,1.6-5.9,0S1235.9,472.3,1237.5,470.7z M1222.5,409.1c2.8-2.8,7.3-2.8,10.1,0c2.8,2.8,2.8,7.3,0,10.1
		c-2.8,2.8-7.3,2.8-10.1,0C1219.7,416.4,1219.7,411.9,1222.5,409.1z M1220.6,448.6c2.8,2.8,2.8,7.3,0,10.1c-2.8,2.8-7.3,2.8-10.1,0
		c-2.8-2.8-2.8-7.3,0-10.1C1213.3,445.8,1217.8,445.8,1220.6,448.6z M1087.6,507.4c8.3-30,20.3-46.9,29.2-56L1204,404
		c-6.4,14.7-12.6,35.5-8,54.8l-0.8,0.5c-0.4-0.8-0.9-1.6-1.6-2.3c-3.1-3.1-8.1-3.1-11.2,0c-2.9,2.9-3.1,7.4-0.6,10.5l-38.2,23.4
		c-0.3-1.3-0.9-2.6-2-3.7c-2.8-2.8-7.3-2.8-10.1,0c-2.8,2.8-2.8,7.3,0,10.1c0.2,0.2,0.4,0.4,0.6,0.6l-25.7,15.7
		c-0.2-1.1-0.8-2.2-1.6-3c-2.4-2.4-6.3-2.4-8.7,0c-2.4,2.4-2.4,6.3,0,8.7c0.1,0.1,0.3,0.3,0.4,0.4l-13.7,8.4
		C1084,522.2,1085.5,515.1,1087.6,507.4z M1101.3,549.5c-1.6,1.6-4.2,1.6-5.7,0c-1.6-1.6-1.6-4.2,0-5.7c1.6-1.6,4.2-1.6,5.7,0
		S1102.8,548,1101.3,549.5z"/>
	
		<ellipse transform="matrix(0.7071 -0.7071 0.7071 0.7071 -11.6648 925.7938)" class="st0" cx="1111.7" cy="477" rx="6.3" ry="6.3"/>
	
		<ellipse transform="matrix(0.7071 -0.7071 0.7071 0.7071 13.4281 953.3543)" class="st0" cx="1157.5" cy="460.5" rx="8.1" ry="8.1"/>
	
		<ellipse transform="matrix(0.7071 -0.7071 0.7071 0.7071 44.1204 962.156)" class="st0" cx="1183.5" cy="427.8" rx="6.1" ry="6.1"/>
	
		<ellipse transform="matrix(0.7071 -0.7071 0.7071 0.7071 11.348 932.6751)" class="st0" cx="1131.5" cy="452.6" rx="5.2" ry="5.2"/>
	<path class="st0" d="M236.2,757.1l3.6-32.4c1.5-13.7-7.8-26.6-20.9-26.6c-13.1,0-22.4,12.8-20.9,26.6l3.6,32.4h-69l-24.6,150h14.1
		L155,789.2h128l32.7,117.9h14.1l-24.6-150H236.2z M218.9,710.9c5,0,9.1,4.1,9.1,9.1s-4.1,9.1-9.1,9.1c-5,0-9.1-4.1-9.1-9.1
		S213.9,710.9,218.9,710.9z"/>
	<path class="st0" d="M161.2,797l-29.6,111.6h174.7L276.7,797H161.2z M169.5,851.8L160,892h-6.5l9.4-40.2l9.1-38.9h6.5L169.5,851.8z
		 M195.6,850.2l-0.7,6.3l-4.2,35.5h-5.4l4.5-38.6l0.7-6.3l4-34.2h5.4L195.6,850.2z M221.7,892h-5l0-37l0-6.3l0-35.7h5l0,35.7l0,6.3
		L221.7,892z M247.7,892l-4.2-35.5l-0.7-6.3l-4.4-37.3h5.4l4,34.2l0.7,6.3l4.5,38.6H247.7z M278.4,892l-9.4-40.2l-9.1-38.9h6.5
		l9.1,38.9l9.4,40.2H278.4z"/>
	<path class="st0" d="M467.1,903.4h135l8.2-161.3H458.9L467.1,903.4z M568.9,878l3.3-100.4c0.2-6,4.8-10.9,10.2-10.9h0
		c5.4,0,9.6,4.9,9.3,10.9l-5,100.4c-0.2,4.9-4.4,8.9-9.3,8.9h0C572.5,886.9,568.7,882.9,568.9,878z M534.6,766.6L534.6,766.6
		c5.4,0,9.8,4.9,9.8,10.9L543.5,878c0,4.9-4,8.9-8.9,8.9l0,0c-4.9,0-8.9-4-8.9-8.9l-0.9-100.4C524.8,771.5,529.2,766.6,534.6,766.6z
		 M486.9,766.6L486.9,766.6c5.4,0,10,4.9,10.2,10.9l3.3,100.4c0.2,4.9-3.7,8.9-8.5,8.9h0c-4.9,0-9-4-9.3-8.9l-5-100.4
		C477.3,771.5,481.4,766.6,486.9,766.6z"/>
	<path class="st0" d="M563.9,716.5c0-7.2-5.8-13-13-13h-27.5c-7.2,0-13,5.8-13,13v0.6h-58.9v19.5h170v-19.5h-57.6V716.5z"/>
	<path class="st0" d="M934.5,769c-11,11.2-27.4,23-21.6,7.4c4.8-12.8,20.8-54.9,26.4-69.4c1.1-2.8-0.2-5.9-3-7.1l-1.6-0.7
		c-2.8-1.2-6.1,0-7.4,2.7L904,751.3c-0.7,1.5-2.5,2.2-4.1,1.6l0,0c-1.5-0.6-2.3-2.3-1.9-3.8l16.9-61.7c0.8-2.9-0.8-5.9-3.6-6.8
		l-1.5-0.5c-3-1-6.2,0.7-7.2,3.7l-18.6,61.5c-0.3,0.9-1.2,1.5-2.1,1.3c-1-0.2-1.6-1.1-1.5-2.1l9.1-57.2c0.5-3.1-1.7-6-4.8-6.4
		l-1.2-0.2c-2.9-0.4-5.7,1.5-6.3,4.4l-12.9,61.5c-0.1,0.6-0.6,1-1.2,1.2c-0.9,0.2-1.8-0.5-1.8-1.5l1.1-44c0.1-2.9-2.1-5.4-5-5.7
		c-3.1-0.4-5.9,1.9-6.2,5l-5.5,51.7c0,0-0.3,0.7-0.8,2c3.5,13,7.3,26.6,9.6,35c1.1-3.6,2.2-8.2,2.9-13.5c1-6.9,4.9-12.5,11.2-16.2
		c4.8-2.8,9.8-3.8,12.6-3.8c0.7,0,1.3,0.1,1.9,0.2c2.5,0.5,4.4,2.4,4.8,4.9c0.3,1.9-0.3,4.2-2.2,5.7c-0.4,1.5-1.2,5.6-2,16.2
		c-0.6,8.6-0.9,18.4-1.1,25.6c-0.1,3.5-0.2,6.4-0.3,8.5c-0.5,10.2-9.7,32-13.2,40.1l12.9,22l4.5-45.9c0,0,28.3-16,35.3-24.7
		c7-8.7,31.9-42.2,36.1-40.9S945.5,757.9,934.5,769z"/>
	<path class="st0" d="M862.5,858.2c0,0,13.4-29.6,14-40.7c0.5-11.1,0.9-52.8,5.1-54.3c4.2-1.5-16.1-1.1-18.4,14.4
		c-2.3,15.5-8.6,34.7-13.1,18.7c-1.7-6-5-18.1-8.5-31.1c-4.3-15.6-8.8-32.3-11-40.5c-0.8-2.9-3.7-4.6-6.6-4l-1.7,0.4
		c-3,0.6-4.9,3.5-4.4,6.5l10.2,53.7c0.3,1.7-0.7,3.3-2.4,3.7v0c-1.6,0.4-3.2-0.5-3.8-2l-22.7-59.8c-1.1-2.8-4.1-4.3-7-3.4l-1.6,0.5
		c-3,1-4.6,4.2-3.6,7.2l21.2,60.7c0.3,0.9-0.1,1.9-1,2.3l0,0c-0.9,0.4-2,0-2.4-0.8l-26.4-51.6c-1.4-2.8-4.9-3.9-7.6-2.4l-1.1,0.6
		c-2.6,1.4-3.7,4.6-2.5,7.3l25.8,57.3c0.2,0.5,0.1,1.2-0.3,1.6c-0.6,0.7-1.8,0.6-2.3-0.2l-25-36.2c-1.7-2.4-4.9-3.1-7.4-1.7l0,0
		c-2.7,1.5-3.7,5-2.1,7.7l26,45c0,0,9.2,38.9,32.4,57.8l4.8,44.5l67.6-20l-12.1-20.6L862.5,858.2z"/>
	<path class="st0" d="M1274.2,828.7v-27.1c0-20.1-16.3-36.4-36.4-36.4h-8.2V759h-10.8v-15.1c0-15.5-6-30.1-17-41.1
		c-11-11-25.6-17-41.1-17c-15.5,0-30.1,6-41.1,17c-11,11-17,25.6-17,41.1v96.4c-2.9,0.8-5,3.5-5,6.6v9.5h5v0h7.8v0h5.5v-9.5
		c0-3.3-2.4-6.1-5.5-6.7v-96.3c0-27.8,22.6-50.3,50.3-50.3c27.8,0,50.3,22.6,50.3,50.3V759h-7v6.3h-10.4
		c-20.1,0-36.4,16.3-36.4,36.4v27.1c-7.4,3.5-18.8,10.4-18.8,20.3v24.4c6.7,0,13.1,2.7,18,7.7c0.3,0.3,0.5,0.6,0.8,0.8
		c0.8,0.9,1.5,1.8,2.2,2.7c2.9,4.2,4.8,9.2,5.3,14.6l0.1,0.6h7.1V860c0-24.3,19.7-43.9,43.9-43.9h0c24.3,0,43.9,19.7,43.9,43.9v39.9
		h13.4h1.1h18.8V849C1293,839.1,1281.7,832.2,1274.2,828.7z"/>
	<path class="st0" d="M1215.8,824.8c-20.8,0-37.7,14.6-37.7,45.6v29.5h75.4v-29.5C1253.5,840.2,1236.6,824.8,1215.8,824.8z"/>
	<path class="st0" d="M1138.6,879.9C1138.6,879.9,1138.6,879.9,1138.6,879.9l-18.3,0V863h-9.8h-7.8h-7.6v16.9h-18.3
		c-10.3,0-18.7,8.7-19.7,19.9h81.6h18.8h0.9c-0.1-1.7-0.5-3.3-0.9-4.9C1154.7,886.2,1147.3,879.9,1138.6,879.9z"/>
</g>
</svg>
